Coordinates
version=1
nRows=16
nColumns=36
inDegrees=yes

Units are S.I. units (second, meters, Newtons, ...)
If the header above contains a line with 'inDegrees', this indicates whether rotational values are in degrees (yes) or radians (no).

endheader
time	pelvis_tilt	pelvis_list	pelvis_rotation	pelvis_tx	pelvis_ty	pelvis_tz	hip_flexion_r	hip_adduction_r	hip_rotation_r	knee_angle_r	knee_angle_r_beta	ankle_angle_r	subtalar_angle_r	mtp_angle_r	hip_flexion_l	hip_adduction_l	hip_rotation_l	knee_angle_l	knee_angle_l_beta	ankle_angle_l	subtalar_angle_l	mtp_angle_l	lumbar_extension	lumbar_bending	lumbar_rotation	arm_flex_r	arm_add_r	arm_rot_r	elbow_flex_r	pro_sup_r	arm_flex_l	arm_add_l	arm_rot_l	elbow_flex_l	pro_sup_l
     30.31666670	     -0.76902061	      3.24832227	     -2.43229276	      0.91386952	      0.82165947	      0.68208269	     15.97148317	     -5.63360648	     -1.36525023	     66.67246355	      1.16365401	     -2.95748283	    -16.77233830	     -7.49999987	     13.81860247	      6.44070713	      5.97887299	     15.36852607	      0.26823138	      6.23221626	     -9.11525736	     -7.49999987	     -4.70657880	     -3.57804149	      2.02307981	      6.75461201	    -14.56752963	      4.98315081	     25.30506389	    100.79962680	      5.69531077	    -11.23001567	      6.79724817	      8.49388258	     94.17815140
     30.33333330	     -1.17015752	      2.82251766	     -2.53128511	      0.91234671	      0.82276122	      0.68160495	     19.28357158	     -4.89926210	     -1.37179112	     66.08970766	      1.15348300	      1.27583787	    -16.53909479	     -7.49999987	     12.13175981	      6.03233015	      6.36475279	     14.32306325	      0.24998461	      6.70563568	     -9.32475273	     -7.49999987	     -4.47760990	     -2.87989929	      1.11140238	      6.02082058	    -14.14327368	      4.94191171	     23.99748358	     98.38539447	      7.68991819	    -11.30128095	      7.18221207	      9.21706288	     91.75234143
     30.35000000	     -1.57357735	      2.44530300	     -2.42682931	      0.91181902	      0.82313408	      0.68176375	     22.13393909	     -4.26775505	     -1.57541195	     64.11641108	      1.11904248	      4.85752075	    -16.02961433	     -7.49999987	     10.40992478	      5.66224609	      6.76294043	     13.33502435	      0.23274008	      7.51293495	     -9.07509664	     -7.49999987	     -4.13283479	     -2.19201083	     -0.66124045	      5.79569619	    -13.60848229	      5.94294173	     22.10873074	     98.50511068	      9.10594992	    -11.89444939	      9.38032784	     10.52484619	     91.95499861
     30.36666670	     -1.83763255	      2.07643686	     -2.27555193	      0.91082863	      0.82421130	      0.68160185	     24.25926051	     -3.64645526	     -1.71609759	     60.57463306	      1.05722679	      6.66912405	    -15.70216416	     -7.49999987	      8.47908957	      5.26353607	      7.02950523	     12.30459651	      0.21475572	      8.44538253	     -8.53748776	     -7.49999987	     -3.95807892	     -1.55475179	     -1.78507605	      4.92751604	    -13.24777693	      6.08340585	     20.63971788	     96.82881344	     10.86552237	    -12.13030919	      9.75858168	     11.24411075	     90.41448781
     30.38333330	     -2.08597955	      1.79065786	     -2.05232728	      0.90845503	      0.82495848	      0.68113050	     25.86116882	     -3.11818368	     -1.77051073	     55.92878712	      0.97614148	      7.21766938	    -15.63893129	     -7.49999987	      6.60743709	      4.90836614	      7.11452406	     11.36663709	      0.19838524	      9.46392785	     -7.73836901	     -7.49999987	     -3.75786144	     -1.02300705	     -3.00831137	      4.02914211	    -12.77587431	      6.11470105	     19.12063939	     95.39454624	     12.40065582	    -12.47828580	     10.14668437	     12.05414936	     89.18581177
     30.40000000	     -2.84467425	      1.72586957	     -1.73932764	      0.90666569	      0.82395758	      0.68052517	     27.62693021	     -2.95057238	     -1.85443902	     50.72983959	      0.88540273	      7.29316220	    -14.89170986	     -7.49999987	      5.36960996	      4.81608780	      7.41659238	     10.44035463	      0.18221856	     10.12438244	     -7.38972242	     -7.49999987	     -2.79451920	     -0.69255819	     -4.32440519	      2.76881671	    -12.49046679	      6.10298718	     18.67105715	     95.03269135	     13.46837126	    -12.99510099	     10.35188143	     13.18220084	     88.92972910
     30.41666670	     -2.81679064	      1.44302817	     -1.36088833	      0.90565514	      0.82384392	      0.67991287	     28.09738402	     -2.60895888	     -1.95871957	     44.88494085	      0.78339000	      6.50286786	    -14.71339921	     -7.49999987	      3.51183399	      4.48389258	      7.48626491	      9.82528833	      0.17148363	     11.36562062	     -6.40124129	     -7.49999987	     -2.90561605	     -0.15951997	     -6.16811769	      2.90619364	    -11.95629711	      5.45789030	     16.26540208	     96.53403749	     14.59935563	    -13.96602468	     11.71747341	     14.74308095	     90.62327682
     30.43333330	     -3.36208432	      1.33312554	     -0.92017181	      0.90479524	      0.82314390	      0.67865252	     29.03462881	     -2.54500625	     -2.00625074	     38.89855736	      0.67890790	      5.37095495	    -14.56239716	     -7.49999987	      2.39232348	      4.32354801	      7.55806707	      9.33490473	      0.16292482	     12.38029368	     -5.83818030	     -7.49999987	     -2.18685217	      0.10456827	     -7.39375778	      1.84036930	    -11.80976391	      4.90194635	     15.82510306	     95.72135899	     15.95493444	    -14.48762725	     11.25509584	     15.81192490	     90.10799065
     30.45000000	     -3.71119148	      1.34210611	     -0.54834360	      0.90317897	      0.82064688	      0.67700789	     29.68377916	     -2.64403695	     -1.81944987	     32.74837973	      0.57156705	      4.18954179	    -14.16316914	     -7.49999987	      1.13690696	      4.25898193	      7.29867336	      9.00575821	      0.15718013	     14.06456825	     -4.89387953	     -7.49999987	     -1.77158751	      0.19057320	     -8.48881039	      1.26736520	    -11.58795115	      3.64931776	     14.34711564	     95.64356840	     17.17383091	    -15.23354680	     11.07931580	     17.43982903	     90.42131565
     30.46666670	     -4.39904455	      1.42002525	      0.03583293	      0.90238639	      0.81520723	      0.67543897	     30.54473933	     -2.97766759	     -1.73207483	     26.40119994	      0.46078787	      3.06695181	    -13.76520914	     -7.49999987	      0.22538330	      4.27812948	      7.09440022	      8.73517037	      0.15245748	     15.61556691	     -4.09592775	     -7.49999987	     -0.84112728	      0.16622071	     -9.93741628	      0.55082902	    -11.40038112	      1.00173361	     12.96993171	     96.65538168	     17.64606768	    -16.06107988	     10.34500324	     19.59472728	     91.48233339
     30.48333330	     -5.07439029	      1.45058446	      0.78771410	      0.90272406	      0.80979265	      0.67442302	     31.12529768	     -3.40942256	     -1.84360136	     19.72272628	      0.34422651	      2.39601966	    -12.82431246	     -7.49999987	     -0.73528693	      4.27742058	      7.08152967	      8.54982877	      0.14922266	     17.00698829	     -3.41892676	     -7.49999987	      0.12942264	      0.11174614	    -10.94824565	     -0.41073203	    -11.54127304	     -0.11248081	     11.80410203	     96.64487339	     18.54858705	    -16.35646950	      9.68263567	     20.56347133	     91.49145435
     30.50000000	     -5.78916241	      1.51663141	      1.63949861	      0.90371555	      0.80553721	      0.67382199	     31.45732459	     -3.90060411	     -1.76670395	     12.93700742	      0.22579337	      2.24990343	    -11.62510356	     -7.49999987	     -1.74432754	      4.28125458	      7.07923747	      8.39695762	      0.14655456	     18.20996851	     -2.62017986	     -7.49999987	      1.23571501	     -0.07810302	    -12.12516981	     -1.13917732	    -11.78452713	     -1.53666521	     10.67200018	     95.79496371	     18.84963597	    -16.72524006	      9.09565274	     22.27053716	     90.69393852
     30.51666670	     -6.51260673	      1.67165020	      2.39672679	      0.90460922	      0.80068765	      0.67322805	     31.69209697	     -4.43392210	     -1.31883631	      6.66097065	      0.11625587	      2.55007820	    -10.20036528	     -7.49999987	     -2.70646767	      4.29385629	      7.05781399	      8.47670132	      0.14794635	     19.20881588	     -1.66334828	     -7.49999987	      2.36440565	     -0.54259210	    -13.11490821	     -1.71886765	    -11.63797523	    -11.10767195	      9.45767564	    102.12392868	     18.59169949	    -17.01668312	      6.41335968	     25.34598577	     94.09498072
     30.53333330	     -7.21027336	      1.84807313	      2.98806479	      0.90573119	      0.79449049	      0.67253720	     32.17205078	     -4.97048230	     -0.93224252	      2.04304654	      0.03565789	      3.52260479	     -8.20342209	     -7.49999987	     -3.51970548	      4.27397373	      7.04901159	      8.95980262	      0.15637806	     20.10278124	     -0.93062131	     -7.49999987	      3.53384431	     -1.06791536	    -13.61936940	     -2.34046782	    -12.08396721	    -11.86196524	      8.51516999	    101.68548790	     18.73298895	    -17.27207556	      6.50941535	     27.46789664	     93.31569286
     30.55000000	     -8.12312005	      2.11423520	      3.15580535	      0.90740481	      0.78799338	      0.67318097	     33.75729443	     -5.35592168	     -0.18465331	      0.60726216	      0.01059872	      5.02179473	     -6.86012539	     -7.49999987	     -3.75879787	      4.32815035	      6.76966495	     10.13106098	      0.17682037	     21.03652592	     -0.61075701	     -7.49999987	      4.97479585	     -1.72545435	    -13.24604358	     -3.37555463	    -12.48432033	    -12.38135899	      8.10777011	    101.59311618	     19.07714146	    -17.27869872	      6.59336053	     29.06109672	     93.23173391
     30.56666670	     -8.85146983	      1.81026246	      3.34194523	      0.90994018	      0.78222234	      0.67444195	     34.80193907	     -5.08576788	     -0.16363467	      0.44924323	      0.00784077	      6.18565464	     -5.68464684	     -7.49999987	     -3.88858404	      3.68949434	      6.21544135	     12.01301927	      0.20966674	     21.91797885	     -0.09037732	     -7.49999987	      6.35449493	     -1.54672119	    -13.12178142	     -4.05422229	    -12.86215071	    -13.01389691	      8.12060341	    101.52834276	     18.81006128	    -17.15164375	      6.63472917	     30.50411103	     93.04199160
